<?xml version="1.0" encoding="UTF-8" standalone="no"?>
<!-- Generator: Adobe Illustrator 23.0.1, SVG Export Plug-In . SVG Version: 6.00 Build 0)  -->

<svg
   xmlns:dc="http://purl.org/dc/elements/1.1/"
   xmlns:cc="http://creativecommons.org/ns#"
   xmlns:rdf="http://www.w3.org/1999/02/22-rdf-syntax-ns#"
   xmlns:svg="http://www.w3.org/2000/svg"
   xmlns="http://www.w3.org/2000/svg"
   xmlns:sodipodi="http://sodipodi.sourceforge.net/DTD/sodipodi-0.dtd"
   xmlns:inkscape="http://www.inkscape.org/namespaces/inkscape"
   version="1.0"
   id="Layer_1"
   x="0px"
   y="0px"
   viewBox="0 0 502.82904 505.24756"
   xml:space="preserve"
   sodipodi:docname="Blockstream_logo.svg"
   width="502.82904"
   height="505.24756"
   inkscape:version="0.92.4 (5da689c313, 2019-01-14)"><metadata
   id="metadata1061"><rdf:RDF><cc:Work
       rdf:about=""><dc:format>image/svg+xml</dc:format><dc:type
         rdf:resource="http://purl.org/dc/dcmitype/StillImage" /><dc:title>Blockstream_logo_rgb_blk</dc:title></cc:Work></rdf:RDF></metadata><defs
   id="defs1059" /><sodipodi:namedview
   pagecolor="#ffffff"
   bordercolor="#666666"
   borderopacity="1"
   objecttolerance="10"
   gridtolerance="10"
   guidetolerance="10"
   inkscape:pageopacity="0"
   inkscape:pageshadow="2"
   inkscape:window-width="3436"
   inkscape:window-height="1386"
   id="namedview1057"
   showgrid="false"
   inkscape:zoom="1.6757414"
   inkscape:cx="275.13838"
   inkscape:cy="306.59192"
   inkscape:window-x="0"
   inkscape:window-y="24"
   inkscape:window-maximized="0"
   inkscape:current-layer="Layer_1" />
<style
   type="text/css"
   id="style958">
	.st0{fill:#111316;}
	.st1{fill:#00C3FF;}
	.st2{fill:#7EE0FF;}
</style>
<title
   id="title960">Blockstream_logo_rgb_blk</title>











<path
   class="st1"
   d="m 406,139.9 c 10.2,14.3 18.4,29.9 24.5,46.4 l 21.8,-7.1 c -6.9,-18.9 -16.4,-36.8 -28.1,-53.1 z"
   id="path984"
   style="fill:#000000"
   inkscape:connector-curvature="0" />
<path
   class="st1"
   d="m 256.9,36.8 c -5.8,-0.2 -11.7,-0.2 -17.5,0 l 1.6,22.8 c 8.8,-0.3 17.6,-0.1 26.3,0.7 8.7,0.8 17.4,2.2 26,4.2 l 5.8,-22.1 c -9.8,-2.3 -19.7,-3.9 -29.7,-4.8 -4.1,-0.4 -8.4,-0.7 -12.5,-0.8 z"
   id="path986"
   style="fill:#000000"
   inkscape:connector-curvature="0" />
<path
   class="st1"
   d="M 43.4,353.1 C 34.3,334.5 27.7,314.8 23.9,294.5 L 0,298.3 c 4.2,23 11.6,45.3 22,66.2 z"
   id="path988"
   style="fill:#000000"
   inkscape:connector-curvature="0" />
<path
   class="st1"
   d="M 31.1,123.2 52.3,135 C 62.9,117.2 75.8,101 90.8,86.7 L 74.6,68.7 C 57.6,84.8 43,103.1 31.1,123.2 Z"
   id="path990"
   style="fill:#000000"
   inkscape:connector-curvature="0" />
<path
   class="st1"
   d="m 1.1,201.1 23.8,4.2 C 29.1,185 36.1,165.4 45.6,147 L 24.4,135.3 C 13.6,156.1 5.8,178.2 1.1,201.1 Z"
   id="path992"
   style="fill:#000000"
   inkscape:connector-curvature="0" />
<path
   class="st1"
   d="m 156.2,16.4 9.5,22.2 C 185,31 205.2,26.1 225.8,24.1 L 224.1,0 C 200.8,2.2 178,7.7 156.2,16.4 Z"
   id="path994"
   style="fill:#000000"
   inkscape:connector-curvature="0" />
<path
   class="st1"
   d="m 84.8,59.4 16.2,18 C 116.8,64 134.3,52.8 153.1,44 l -9.5,-22.2 c -21.3,9.7 -41.1,22.4 -58.8,37.6 z"
   id="path996"
   style="fill:#000000"
   inkscape:connector-curvature="0" />
<path
   class="st1"
   d="m 443.4,415.2 -18.9,-15.1 c -13.4,15.8 -28.9,29.7 -46,41.4 l 13,20.5 c 19.4,-13.1 36.9,-28.8 51.9,-46.8 z"
   id="path998"
   style="fill:#000000"
   inkscape:connector-curvature="0" />
<path
   class="st1"
   d="m 148.8,458.3 c -18.6,-9.1 -35.9,-20.7 -51.4,-34.5 l -16.5,17.7 c 17.4,15.6 37,28.6 58,38.8 z"
   id="path1000"
   style="fill:#000000"
   inkscape:connector-curvature="0" />
<path
   class="st1"
   d="m 501.7,275.8 c 3.1,-32.6 -0.2,-65.5 -9.7,-96.8 l -23,7.6 c 13.2,44.4 12.7,91.7 -1.3,135.8 l 22.8,8.1 c 5.7,-17.7 9.5,-36.1 11.2,-54.7 z"
   id="path1002"
   style="fill:#000000"
   inkscape:connector-curvature="0" />
<path
   class="st1"
   d="m 360.5,436.8 -12.2,-19.2 c -15.1,9 -31.3,16 -48.3,20.7 l 5.4,22.2 c 19.4,-5.4 37.9,-13.3 55.1,-23.7 z"
   id="path1004"
   style="fill:#000000"
   inkscape:connector-curvature="0" />
<path
   class="st1"
   d="m 60.8,276.4 c -1.7,-14.2 -1.9,-28.6 -0.5,-42.9 0.3,-3.5 0.7,-6.5 1.2,-9.6 l -22.5,-4 c -0.5,3.8 -1,7.6 -1.4,11.5 -1.5,16.1 -1.3,32.4 0.7,48.5 z"
   id="path1006"
   style="fill:#000000"
   inkscape:connector-curvature="0" />
<path
   class="st1"
   d="m 314.5,32.3 c 19.9,5.8 38.9,14.4 56.4,25.4 L 384.4,37.5 C 364.6,25 343.2,15.4 320.7,8.8 Z"
   id="path1008"
   style="fill:#000000"
   inkscape:connector-curvature="0" />
<path
   class="st1"
   d="m 216.1,503.4 2.3,-24.1 c -19.5,-2.6 -38.6,-7.8 -56.8,-15.3 l -10.1,22.2 c 20.6,8.5 42.4,14.3 64.6,17.2 z"
   id="path1010"
   style="fill:#000000"
   inkscape:connector-curvature="0" />
<path
   class="st1"
   d="m 97.6,405.3 15.7,-16.6 C 100.9,376.2 90.2,362.2 81.5,346.9 l -20.3,10.7 c 9.9,17.4 22.2,33.5 36.4,47.7 z"
   id="path1012"
   style="fill:#000000"
   inkscape:connector-curvature="0" />
<path
   class="st1"
   d="m 395.8,45.3 -13.6,20.2 c 16.9,12 32,26.3 45.1,42.4 L 446.7,93.1 C 432,74.8 414.9,58.8 395.8,45.3 Z"
   id="path1014"
   style="fill:#000000"
   inkscape:connector-curvature="0" />
<path
   class="st1"
   d="m 419,380.8 c 12,-16.1 21.8,-33.7 29.1,-52.5 l -21.5,-7.7 c -6.4,16.4 -15,31.9 -25.5,46 z"
   id="path1016"
   style="fill:#000000"
   inkscape:connector-curvature="0" />
<path
   class="st2"
   d="m 436.9,197.2 -21.6,7.2 c 6,20.7 8,42.4 6,63.8 -1.1,11.9 -3.4,23.7 -6.9,35.2 l 21.5,7.6 c 4.1,-13.2 6.9,-26.9 8.2,-40.7 2.3,-24.6 -0.2,-49.4 -7.2,-73.1 z"
   id="path1018"
   style="fill:#000000"
   inkscape:connector-curvature="0" />
<path
   class="st2"
   d="m 221.5,445.6 2.1,-22.7 c -13.3,-2 -26.4,-5.5 -38.9,-10.5 l -9.4,20.7 c 14.8,6 30.3,10.2 46.2,12.5 z"
   id="path1020"
   style="fill:#000000"
   inkscape:connector-curvature="0" />
<path
   class="st2"
   d="m 378.1,203.8 20.4,-6.9 C 393.6,184 387.1,171.7 379.1,160.3 l -17.1,13 c 6.6,9.5 12,19.7 16.1,30.5 z"
   id="path1022"
   style="fill:#000000"
   inkscape:connector-curvature="0" />
<path
   class="st2"
   d="m 254.7,93.3 h -11.2 l 1.5,21.4 c 11.5,-0.3 22.9,0.7 34.2,3.2 l 5.5,-20.7 c -6.8,-1.5 -13.6,-2.6 -20.5,-3.2 -3.1,-0.3 -6.3,-0.5 -9.5,-0.7 z"
   id="path1024"
   style="fill:#000000"
   inkscape:connector-curvature="0" />
<path
   class="st2"
   d="m 81.8,151.4 20,11.1 c 7.5,-12.4 16.5,-23.7 26.9,-33.8 l -15.4,-17 c -12.2,11.8 -22.8,25.1 -31.5,39.7 z"
   id="path1026"
   style="fill:#000000"
   inkscape:connector-curvature="0" />
<path
   class="st2"
   d="m 300.1,87.1 c 13.8,4.2 27.1,10.2 39.4,17.7 l 12.7,-19 C 337.8,76.9 322.2,70 306,65.1 Z"
   id="path1028"
   style="fill:#000000"
   inkscape:connector-curvature="0" />
<path
   class="st2"
   d="m 382.2,142.1 18.1,-13.8 C 389.6,115.1 377.1,103.4 363.4,93.5 l -12.7,19 c 11.8,8.5 22.3,18.4 31.5,29.6 z"
   id="path1030"
   style="fill:#000000"
   inkscape:connector-curvature="0" />
<path
   class="st2"
   d="m 357.8,332.2 16.8,13.4 c 8.2,-11.2 14.9,-23.3 20.1,-36.2 l -20.2,-7.2 c -4.4,10.6 -10,20.7 -16.7,30 z"
   id="path1032"
   style="fill:#000000"
   inkscape:connector-curvature="0" />
<path
   class="st2"
   d="m 136.2,382.7 -15.6,16.6 c 12.8,11.2 26.9,20.7 42.2,28.2 l 9.4,-20.7 c -13,-6.4 -25.1,-14.6 -36,-24.1 z"
   id="path1034"
   style="fill:#000000"
   inkscape:connector-curvature="0" />
<path
   class="st2"
   d="m 115.5,267.8 c -1,-9.7 -1.1,-19.5 -0.2,-29.2 0.2,-1.7 0.4,-3.5 0.6,-5.1 l -21.1,-3.8 c -0.3,2.3 -0.6,4.6 -0.8,6.9 -1.1,11.5 -0.9,23 0.3,34.5 z"
   id="path1036"
   style="fill:#000000"
   inkscape:connector-curvature="0" />
<path
   class="st2"
   d="m 79.9,285.6 -22.6,3.5 c 3.2,16.7 8.6,33 16,48.3 L 93.5,326.7 C 87.2,313.6 82.7,299.8 79.9,285.6 Z"
   id="path1038"
   style="fill:#000000"
   inkscape:connector-curvature="0" />
<path
   class="st2"
   d="m 348,393.9 12.3,19.2 c 14,-9.6 26.7,-21 37.7,-33.8 l -17.9,-14.2 c -9.4,10.9 -20.2,20.6 -32.1,28.8 z"
   id="path1040"
   style="fill:#000000"
   inkscape:connector-curvature="0" />
<path
   class="st2"
   d="m 95.1,174.5 -19.9,-11 c -7.8,15.1 -13.5,31.2 -17,47.8 l 22.5,4 c 3,-14.2 7.8,-27.9 14.4,-40.8 z"
   id="path1042"
   style="fill:#000000"
   inkscape:connector-curvature="0" />
<path
   class="st2"
   d="m 286.9,384.5 5,20.7 C 305.2,401.4 318,396 330,389 l -11.6,-18.1 c -9.9,5.7 -20.5,10.3 -31.5,13.6 z"
   id="path1044"
   style="fill:#000000"
   inkscape:connector-curvature="0" />
<path
   class="st2"
   d="m 130.3,321.1 -19,9.9 c 6.9,12 15.4,23 25.1,32.9 l 14.8,-15.7 c -8,-8.2 -15,-17.3 -20.9,-27.1 z"
   id="path1046"
   style="fill:#000000"
   inkscape:connector-curvature="0" />
<path
   class="st2"
   d="m 243,424.7 c -1.9,0 -3.8,-0.2 -5.7,-0.4 l -2.1,22.7 c 17.9,1.3 35.9,0.1 53.4,-3.5 l -5.3,-22.2 c -13.2,2.8 -26.8,3.9 -40.3,3.4 z"
   id="path1048"
   style="fill:#000000"
   inkscape:connector-curvature="0" />
<path
   class="st2"
   d="m 123.6,102.5 15.3,16.9 c 11.1,-9.3 23.3,-17.1 36.4,-23.3 l -9,-21 c -15.4,7.2 -29.7,16.4 -42.7,27.4 z"
   id="path1050"
   style="fill:#000000"
   inkscape:connector-curvature="0" />
<path
   class="st2"
   d="m 179,69.7 9,21 c 13.5,-5.2 27.6,-8.7 42,-10.3 l -1.7,-22.8 c -16.9,1.9 -33.5,5.9 -49.3,12.1 z"
   id="path1052"
   style="fill:#000000"
   inkscape:connector-curvature="0" />
<path
   class="st1"
   d="m 236.6,505.1 c 21.5,0.7 43,-1.1 64.2,-5.2 l -5,-23.3 c -18.3,3.8 -37,5.3 -55.8,4.6 -3,0 -5.2,-0.4 -8.2,-0.6 l -2.1,24.4 c 2.3,0.1 4.6,0.1 6.9,0 z"
   id="path1054"
   style="fill:#000000"
   inkscape:connector-curvature="0" />
</svg>