<?xml version="1.0" encoding="UTF-8" standalone="no"?>
<!-- Generator: Adobe Illustrator 23.0.1, SVG Export Plug-In . SVG Version: 6.00 Build 0)  -->

<svg
   xmlns:dc="http://purl.org/dc/elements/1.1/"
   xmlns:cc="http://creativecommons.org/ns#"
   xmlns:rdf="http://www.w3.org/1999/02/22-rdf-syntax-ns#"
   xmlns:svg="http://www.w3.org/2000/svg"
   xmlns="http://www.w3.org/2000/svg"
   xmlns:sodipodi="http://sodipodi.sourceforge.net/DTD/sodipodi-0.dtd"
   xmlns:inkscape="http://www.inkscape.org/namespaces/inkscape"
   version="1.0"
   id="Layer_1"
   x="0px"
   y="0px"
   viewBox="0 0 502.82904 505.24756"
   xml:space="preserve"
   sodipodi:docname="three_confirmations.svg"
   width="502.82904"
   height="505.24756"
   inkscape:version="0.92.4 (5da689c313, 2019-01-14)"><metadata
   id="metadata1061"><rdf:RDF><cc:Work
       rdf:about=""><dc:format>image/svg+xml</dc:format><dc:type
         rdf:resource="http://purl.org/dc/dcmitype/StillImage" /><dc:title>Blockstream_logo_rgb_blk</dc:title></cc:Work></rdf:RDF></metadata><defs
   id="defs1059" /><sodipodi:namedview
   pagecolor="#ffffff"
   bordercolor="#666666"
   borderopacity="1"
   objecttolerance="10"
   gridtolerance="10"
   guidetolerance="10"
   inkscape:pageopacity="0"
   inkscape:pageshadow="2"
   inkscape:window-width="3436"
   inkscape:window-height="1386"
   id="namedview1057"
   showgrid="false"
   inkscape:zoom="2"
   inkscape:cx="458.79421"
   inkscape:cy="297.25865"
   inkscape:window-x="0"
   inkscape:window-y="24"
   inkscape:window-maximized="0"
   inkscape:current-layer="Layer_1"
   inkscape:snap-object-midpoints="true"
   showguides="true"
   inkscape:guide-bbox="true"
   inkscape:snap-intersection-paths="true"
   inkscape:snap-bbox="true"
   inkscape:snap-bbox-midpoints="true"
   inkscape:object-paths="true"
   inkscape:snap-center="true"
   inkscape:snap-page="true"><sodipodi:guide
     position="251.4145,277.35435"
     orientation="1,0"
     id="guide1339"
     inkscape:locked="false" /><sodipodi:guide
     position="611,253"
     orientation="0,1"
     id="guide1341"
     inkscape:locked="false" /></sodipodi:namedview>
<style
   type="text/css"
   id="style958">
	.st0{fill:#111316;}
	.st1{fill:#00C3FF;}
	.st2{fill:#7EE0FF;}
</style>
<title
   id="title960">Blockstream_logo_rgb_blk</title>















































<path
   style="color:#000000;font-style:normal;font-variant:normal;font-weight:normal;font-stretch:normal;font-size:medium;line-height:normal;font-family:sans-serif;font-variant-ligatures:normal;font-variant-position:normal;font-variant-caps:normal;font-variant-numeric:normal;font-variant-alternates:normal;font-feature-settings:normal;text-indent:0;text-align:start;text-decoration:none;text-decoration-line:none;text-decoration-style:solid;text-decoration-color:#000000;letter-spacing:normal;word-spacing:normal;text-transform:none;writing-mode:lr-tb;direction:ltr;text-orientation:mixed;dominant-baseline:auto;baseline-shift:baseline;text-anchor:start;white-space:normal;shape-padding:0;clip-rule:nonzero;display:inline;overflow:visible;visibility:visible;opacity:1;isolation:auto;mix-blend-mode:normal;color-interpolation:sRGB;color-interpolation-filters:linearRGB;solid-color:#000000;solid-opacity:1;vector-effect:none;fill:#000000;fill-opacity:1;fill-rule:nonzero;stroke:none;stroke-width:80;stroke-linecap:butt;stroke-linejoin:miter;stroke-miterlimit:4;stroke-dasharray:none;stroke-dashoffset:0;stroke-opacity:1;color-rendering:auto;image-rendering:auto;shape-rendering:auto;text-rendering:auto;enable-background:accumulate"
   d="M 251.41406 22.761719 L 251.41406 102.76172 C 334.44683 102.76191 400.9002 169.21528 400.90039 252.24805 C 400.9002 335.28082 334.44683 401.73419 251.41406 401.73438 C 168.38129 401.73419 101.92792 335.28082 101.92773 252.24805 L 21.927734 252.24805 C 21.928024 378.5159 125.14621 481.73409 251.41406 481.73438 C 377.68191 481.73408 480.9001 378.5159 480.90039 252.24805 C 480.9001 125.9802 377.68191 22.762012 251.41406 22.761719 z "
   id="path1449" /><g
   aria-label="3"
   style="font-style:normal;font-weight:normal;font-size:26.66666603px;line-height:1.25;font-family:sans-serif;letter-spacing:0px;word-spacing:0px;fill:#000000;fill-opacity:1;stroke:none"
   id="text1621"><path
     d="m 228.62804,236.36214 h 19.66146 q 14.84375,0 22.0052,-7.42188 7.16146,-7.55208 7.16146,-19.66146 0,-5.59895 -1.69271,-10.15625 -1.5625,-4.6875 -4.8177,-7.9427 -3.25521,-3.38542 -8.33334,-5.20834 -4.94791,-1.82291 -11.58854,-1.82291 -5.46875,0 -10.28646,1.5625 -4.6875,1.5625 -8.33333,4.55729 -3.51562,2.86458 -5.59896,7.03125 -2.08333,4.16666 -2.08333,9.375 h -36.19792 q 0,-11.58854 4.6875,-21.09375 4.81771,-9.50521 13.15105,-16.27604 8.33333,-6.90104 19.53124,-10.67709 11.32813,-3.77604 24.34896,-3.77604 14.0625,0 25.78125,3.51563 11.71875,3.38541 20.05208,10.28646 8.33334,6.77083 12.89063,16.92708 4.6875,10.02604 4.6875,23.30729 0,6.11979 -1.82292,12.10937 -1.82292,5.85938 -5.33854,11.19792 -3.51563,5.33854 -8.72396,9.89583 -5.20833,4.42709 -11.97916,7.68229 7.9427,2.86459 13.67187,7.29167 5.85937,4.42708 9.63542,10.15625 3.77604,5.59896 5.59895,12.36979 1.82292,6.77083 1.82292,14.32292 0,13.28125 -5.07812,23.69791 -5.07813,10.41667 -13.93229,17.57813 -8.85417,7.03125 -21.09375,10.80729 -12.10938,3.64583 -26.17188,3.64583 -12.10937,0 -23.69791,-3.25521 -11.45834,-3.38541 -20.44271,-10.02604 -8.98438,-6.77083 -14.45313,-16.92708 -5.33854,-10.15625 -5.33854,-23.95833 h 36.19792 q 0,5.46875 2.08333,10.15625 2.08333,4.55729 5.85938,7.9427 3.90625,3.25521 9.11458,5.20834 5.20833,1.82291 11.45833,1.82291 13.80208,0 21.61458,-7.29166 7.8125,-7.29167 7.8125,-19.79167 0,-7.68229 -2.21354,-13.15104 -2.21354,-5.46875 -6.51041,-8.98437 -4.16667,-3.51563 -10.15625,-5.20834 -5.85938,-1.69271 -13.28125,-1.69271 h -19.66146 z"
     style="font-style:normal;font-variant:normal;font-weight:bold;font-stretch:normal;font-size:266.66665649px;font-family:'Roboto Mono';-inkscape-font-specification:'Roboto Mono Bold'"
     id="path1799" /></g></svg>