<?xml version="1.0" encoding="UTF-8" standalone="no"?>
<!-- Generator: Adobe Illustrator 23.0.1, SVG Export Plug-In . SVG Version: 6.00 Build 0)  -->

<svg
   xmlns:dc="http://purl.org/dc/elements/1.1/"
   xmlns:cc="http://creativecommons.org/ns#"
   xmlns:rdf="http://www.w3.org/1999/02/22-rdf-syntax-ns#"
   xmlns:svg="http://www.w3.org/2000/svg"
   xmlns="http://www.w3.org/2000/svg"
   xmlns:sodipodi="http://sodipodi.sourceforge.net/DTD/sodipodi-0.dtd"
   xmlns:inkscape="http://www.inkscape.org/namespaces/inkscape"
   version="1.0"
   id="Layer_1"
   x="0px"
   y="0px"
   viewBox="0 0 502.82904 505.24756"
   xml:space="preserve"
   sodipodi:docname="two_confirmations.svg"
   width="502.82904"
   height="505.24756"
   inkscape:version="0.92.4 (5da689c313, 2019-01-14)"><metadata
   id="metadata1061"><rdf:RDF><cc:Work
       rdf:about=""><dc:format>image/svg+xml</dc:format><dc:type
         rdf:resource="http://purl.org/dc/dcmitype/StillImage" /><dc:title>Blockstream_logo_rgb_blk</dc:title></cc:Work></rdf:RDF></metadata><defs
   id="defs1059" /><sodipodi:namedview
   pagecolor="#ffffff"
   bordercolor="#666666"
   borderopacity="1"
   objecttolerance="10"
   gridtolerance="10"
   guidetolerance="10"
   inkscape:pageopacity="0"
   inkscape:pageshadow="2"
   inkscape:window-width="3436"
   inkscape:window-height="1386"
   id="namedview1057"
   showgrid="false"
   inkscape:zoom="2"
   inkscape:cx="458.79421"
   inkscape:cy="297.25865"
   inkscape:window-x="0"
   inkscape:window-y="24"
   inkscape:window-maximized="0"
   inkscape:current-layer="Layer_1"
   inkscape:snap-object-midpoints="true"
   showguides="true"
   inkscape:guide-bbox="true"
   inkscape:snap-intersection-paths="true"
   inkscape:snap-bbox="true"
   inkscape:snap-bbox-midpoints="true"
   inkscape:object-paths="true"
   inkscape:snap-center="true"
   inkscape:snap-page="true"><sodipodi:guide
     position="251.4145,277.35435"
     orientation="1,0"
     id="guide1339"
     inkscape:locked="false" /><sodipodi:guide
     position="611,253"
     orientation="0,1"
     id="guide1341"
     inkscape:locked="false" /></sodipodi:namedview>
<style
   type="text/css"
   id="style958">
	.st0{fill:#111316;}
	.st1{fill:#00C3FF;}
	.st2{fill:#7EE0FF;}
</style>
<title
   id="title960">Blockstream_logo_rgb_blk</title>















































<path
   style="color:#000000;font-style:normal;font-variant:normal;font-weight:normal;font-stretch:normal;font-size:medium;line-height:normal;font-family:sans-serif;font-variant-ligatures:normal;font-variant-position:normal;font-variant-caps:normal;font-variant-numeric:normal;font-variant-alternates:normal;font-feature-settings:normal;text-indent:0;text-align:start;text-decoration:none;text-decoration-line:none;text-decoration-style:solid;text-decoration-color:#000000;letter-spacing:normal;word-spacing:normal;text-transform:none;writing-mode:lr-tb;direction:ltr;text-orientation:mixed;dominant-baseline:auto;baseline-shift:baseline;text-anchor:start;white-space:normal;shape-padding:0;clip-rule:nonzero;display:inline;overflow:visible;visibility:visible;opacity:1;isolation:auto;mix-blend-mode:normal;color-interpolation:sRGB;color-interpolation-filters:linearRGB;solid-color:#000000;solid-opacity:1;vector-effect:none;fill:#000000;fill-opacity:1;fill-rule:nonzero;stroke:none;stroke-width:80;stroke-linecap:butt;stroke-linejoin:miter;stroke-miterlimit:4;stroke-dasharray:none;stroke-dashoffset:0;stroke-opacity:1;color-rendering:auto;image-rendering:auto;shape-rendering:auto;text-rendering:auto;enable-background:accumulate"
   d="M 251.41406 22.761719 L 251.41406 102.76172 C 334.44683 102.76191 400.9002 169.21528 400.90039 252.24805 C 400.9002 335.28082 334.44683 401.73419 251.41406 401.73438 L 251.41406 481.73438 C 377.68191 481.73408 480.9001 378.5159 480.90039 252.24805 C 480.9001 125.9802 377.68191 22.762012 251.41406 22.761719 z "
   id="path1449" /><g
   aria-label="2"
   style="font-style:normal;font-weight:normal;font-size:26.66666603px;line-height:1.25;font-family:sans-serif;letter-spacing:0px;word-spacing:0px;fill:#000000;fill-opacity:1;stroke:none"
   id="text1621"><path
     d="M 318.01607,348.34131 H 188.7192 v -24.73958 l 61.32812,-65.88542 q 7.16146,-7.8125 12.10937,-14.19271 4.94792,-6.3802 7.94271,-11.58854 3.125,-5.33854 4.42709,-9.89583 1.43229,-4.55729 1.43229,-8.85417 0,-6.3802 -1.82292,-11.32812 -1.82292,-4.94792 -5.20833,-8.33333 -3.25521,-3.51563 -7.94271,-5.33855 -4.55729,-1.82291 -10.15625,-1.82291 -14.97396,0 -22.39583,8.33333 -7.29167,8.33333 -7.29167,23.30729 h -36.32812 q 0,-12.63021 4.81771,-23.82812 4.8177,-11.32813 13.54166,-19.79167 8.85417,-8.46354 21.22396,-13.28125 12.5,-4.94791 27.60416,-4.94791 14.45313,0 25.52084,4.03645 11.19791,4.03646 18.61979,11.32813 7.55208,7.29167 11.45833,17.57812 3.90625,10.15625 3.90625,22.52604 0,9.375 -2.99479,17.96875 -2.86458,8.46354 -8.33333,16.79688 -5.33855,8.33333 -12.89063,17.05729 -7.55208,8.59375 -16.79687,18.09896 l -35.67708,37.76041 h 83.20312 z"
     style="font-style:normal;font-variant:normal;font-weight:bold;font-stretch:normal;font-size:266.66665649px;font-family:'Roboto Mono';-inkscape-font-specification:'Roboto Mono Bold'"
     id="path1652" /></g></svg>